<svg height="480pt" viewBox="0 -31 480 479" width="480pt" xmlns="http://www.w3.org/2000/svg"><path d="m440 8.5h-8v32c0 17.671875-14.328125 32-32 32h-320c-17.671875 0-32-14.328125-32-32v-32h-8c-17.671875 0-32 14.328125-32 32v160c0 17.671875 14.328125 32 32 32h8v-72h384v72h8c17.671875 0 32-14.328125 32-32v-160c0-17.671875-14.328125-32-32-32zm-8 96" fill="#9bc9ff"/><path d="m80 72.5h320c17.671875 0 32-14.328125 32-32v-32h-384v32c0 17.671875 14.328125 32 32 32zm0 0" fill="#9bc9ff"/><g fill="#1e81ce"><path d="m440 .5h-400c-22.082031.027344-39.9726562 17.917969-40 40v160c.0273438 22.082031 17.917969 39.972656 40 40h400c22.082031-.027344 39.972656-17.917969 40-40v-160c-.027344-22.082031-17.917969-39.972656-40-40zm-16 16v24c0 13.253906-10.746094 24-24 24h-320c-13.253906 0-24-10.746094-24-24v-24zm-368 176h368v8h-368zm368-16h-368v-8h368zm-368 48v-8h368v8zm408-24c0 13.253906-10.746094 24-24 24v-64c0-4.417969-3.582031-8-8-8h-384c-4.417969 0-8 3.582031-8 8v64c-13.253906 0-24-10.746094-24-24v-160c0-13.253906 10.746094-24 24-24v24c.027344 22.082031 17.917969 39.972656 40 40h320c22.082031-.027344 39.972656-17.917969 40-40v-24c13.253906 0 24 10.746094 24 24zm0 0"/><path d="m264 128.5h-64c-4.417969 0-8 3.582031-8 8s3.582031 8 8 8h64c4.417969 0 8-3.582031 8-8s-3.582031-8-8-8zm0 0"/><path d="m408 96.5h-8c-4.417969 0-8 3.582031-8 8s3.582031 8 8 8h8c4.417969 0 8-3.582031 8-8s-3.582031-8-8-8zm0 0"/><path d="m440 96.5h-8c-4.417969 0-8 3.582031-8 8s3.582031 8 8 8h8c4.417969 0 8-3.582031 8-8s-3.582031-8-8-8zm0 0"/><path d="m232 416.5c-4.417969 0-8-3.582031-8-8-.148438-10.257812 3.140625-20.269531 9.34375-28.441406 8.875-11.535156 8.875-27.597656 0-39.132813-12.457031-16.914062-12.457031-39.964843 0-56.875 4.445312-5.53125 6.800781-12.453125 6.65625-19.550781 0-4.417969 3.582031-8 8-8s8 3.582031 8 8c.148438 10.253906-3.140625 20.257812-9.34375 28.425781-8.875 11.527344-8.875 27.585938 0 39.117188 12.445312 16.921875 12.445312 39.96875 0 56.890625-4.445312 5.539062-6.800781 12.464844-6.65625 19.566406 0 4.417969-3.582031 8-8 8zm0 0"/><path d="m168 416.5c-4.417969 0-8-3.582031-8-8-.148438-10.257812 3.140625-20.269531 9.34375-28.441406 8.875-11.535156 8.875-27.597656 0-39.132813-12.457031-16.914062-12.457031-39.964843 0-56.875 4.445312-5.53125 6.800781-12.453125 6.65625-19.550781 0-4.417969 3.582031-8 8-8s8 3.582031 8 8c.148438 10.253906-3.140625 20.257812-9.34375 28.425781-8.875 11.527344-8.875 27.585938 0 39.117188 12.445312 16.921875 12.445312 39.96875 0 56.890625-4.445312 5.539062-6.800781 12.464844-6.65625 19.566406 0 4.417969-3.582031 8-8 8zm0 0"/><path d="m296 416.5c-4.417969 0-8-3.582031-8-8-.148438-10.257812 3.140625-20.269531 9.34375-28.441406 8.875-11.535156 8.875-27.597656 0-39.132813-12.457031-16.914062-12.457031-39.964843 0-56.875 4.445312-5.53125 6.800781-12.453125 6.65625-19.550781 0-4.417969 3.582031-8 8-8s8 3.582031 8 8c.148438 10.253906-3.140625 20.257812-9.34375 28.425781-8.875 11.527344-8.875 27.585938 0 39.117188 12.445312 16.921875 12.445312 39.96875 0 56.890625-4.445312 5.539062-6.800781 12.464844-6.65625 19.566406 0 4.417969-3.582031 8-8 8zm0 0"/></g></svg>