<?xml version="1.0" encoding="utf-8"?>
<!-- Generator: Adobe Illustrator 22.1.0, SVG Export Plug-In . SVG Version: 6.00 Build 0)  -->
<svg version="1.1" id="Capa_1" xmlns="http://www.w3.org/2000/svg" xmlns:xlink="http://www.w3.org/1999/xlink" x="0px" y="0px"
	 viewBox="0 0 58 58" style="enable-background:new 0 0 58 58;" xml:space="preserve">
<style type="text/css">
	.st0{fill:#A98258;}
	.st1{fill:#5B4631;}
	.st2{fill:#E8D5B2;}
	.st3{fill:#DAAE86;}
	.st4{fill:#F4D5BD;}
</style>
<g>
	<polygon class="st0" points="48,0 10,0 0,16 0,58 58,58 58,16 	"/>
	<path class="st1" d="M35,27H23c-1.1,0-2-0.9-2-2l0,0c0-1.1,0.9-2,2-2h12c1.1,0,2,0.9,2,2l0,0C37,26.1,36.1,27,35,27z"/>
	<g>
		<path class="st2" d="M37,51H21c-0.6,0-1,0.4-1,1s0.4,1,1,1h16c0.6,0,1-0.4,1-1S37.6,51,37,51z"/>
		<path class="st2" d="M21,43c0.3,0,0.5-0.1,0.7-0.3l1.3-1.3V48c0,0.6,0.4,1,1,1s1-0.4,1-1v-6.6l1.3,1.3c0.2,0.2,0.5,0.3,0.7,0.3
			s0.5-0.1,0.7-0.3c0.4-0.4,0.4-1,0-1.4l-3-3c-0.1-0.1-0.2-0.2-0.3-0.2c-0.2-0.1-0.5-0.1-0.8,0c-0.1,0.1-0.2,0.1-0.3,0.2l-3,3
			c-0.4,0.4-0.4,1,0,1.4C20.5,42.9,20.7,43,21,43z"/>
		<path class="st2" d="M31,43c0.3,0,0.5-0.1,0.7-0.3l1.3-1.3V48c0,0.6,0.4,1,1,1s1-0.4,1-1v-6.6l1.3,1.3c0.2,0.2,0.5,0.3,0.7,0.3
			s0.5-0.1,0.7-0.3c0.4-0.4,0.4-1,0-1.4l-3-3c-0.1-0.1-0.2-0.2-0.3-0.2c-0.2-0.1-0.5-0.1-0.8,0c-0.1,0.1-0.2,0.1-0.3,0.2l-3,3
			c-0.4,0.4-0.4,1,0,1.4C30.5,42.9,30.7,43,31,43z"/>
	</g>
	<polygon class="st3" points="10,0 0,16 58,16 48,0 	"/>
	<rect x="28" class="st4" width="2" height="16"/>
</g>
</svg>
