<?xml version="1.0" encoding="iso-8859-1"?>
<!-- Generator: Adobe Illustrator 19.0.0, SVG Export Plug-In . SVG Version: 6.00 Build 0)  -->
<svg version="1.1" id="Layer_1" xmlns="http://www.w3.org/2000/svg" xmlns:xlink="http://www.w3.org/1999/xlink" x="0px" y="0px"
	 viewBox="0 0 488.8 488.8" style="enable-background:new 0 0 488.8 488.8;" xml:space="preserve">
<path style="fill:#303535;" d="M124.4,0v242.4l53.6,8c13.6-23.2,38.4-46.4,66.4-46.4s53.6,23.2,66.4,46.4l53.6-8V0H124.4z"/>
<rect x="225.2" y="176" style="fill:#53595B;" width="39.2" height="216"/>
<polyline style="fill:#3A3E3F;" points="225.2,176 263.6,176 263.6,392 "/>
<path style="fill:#8CA1A8;" d="M124.4,0v242.4H178c13.6-23.2,38.4-54.4,66.4-54.4s53.6,32,66.4,54.4h53.6V0H124.4z"/>
<path style="fill:#788487;" d="M178,0v241.6c13.6-23.2,37.6-53.6,66.4-53.6s53.6,32,66.4,54.4h53.6V0H178z"/>
<path style="fill:#617072;" d="M243.6,0v188h0.8c28.8,0,53.6,32,66.4,54.4h53.6V0H243.6z"/>
<rect x="124.4" y="31.2" style="fill:#ACC1C6;" width="240" height="12.8"/>
<polyline style="fill:#8CA1A8;" points="124.4,44 364.4,44 364.4,31.2 "/>
<rect x="124.4" y="63.2" style="fill:#ACC1C6;" width="240" height="12.8"/>
<polyline style="fill:#8CA1A8;" points="124.4,76.8 364.4,76.8 364.4,63.2 "/>
<circle style="fill:#DFE9ED;" cx="244.4" cy="136" r="29.6"/>
<circle style="fill:#ACC1C6;" cx="244.4" cy="136" r="37.6"/>
<circle style="fill:#303535;" cx="244.4" cy="136" r="29.6"/>
<path style="fill:#191C1C;" d="M244.4,106.4c16,0,29.6,13.6,29.6,29.6s-13.6,29.6-29.6,29.6"/>
<path style="fill:#8CA1A8;" d="M319.6,459.2c0,16.8-13.6,29.6-29.6,29.6h-90.4c-16.8,0-29.6-13.6-29.6-29.6v-89.6
	c0-16.8,13.6-29.6,29.6-29.6h89.6c16.8,0,29.6,13.6,29.6,29.6v89.6H319.6z"/>
<path style="fill:#788487;" d="M199.6,340h89.6c16.8,0,29.6,13.6,29.6,29.6v89.6c0,16.8-13.6,29.6-29.6,29.6h-89.6"/>
<path style="fill:#617072;" d="M289.2,340c16.8,0,29.6,13.6,29.6,29.6v89.6c0,16.8-13.6,29.6-29.6,29.6"/>
<g>
	<path style="fill:#ACC1C6;" d="M319.6,412c0,1.6-0.8,2.4-2.4,2.4H172.4c-1.6,0-2.4-0.8-2.4-2.4l0,0c0-1.6,0.8-2.4,2.4-2.4h144
		C318,408.8,319.6,410.4,319.6,412L319.6,412z"/>
	<path style="fill:#ACC1C6;" d="M319.6,417.6c0,1.6-0.8,2.4-2.4,2.4H172.4c-1.6,0-2.4-0.8-2.4-2.4l0,0c0-1.6,0.8-2.4,2.4-2.4h144
		C318,415.2,319.6,416,319.6,417.6L319.6,417.6z"/>
</g>
<path style="fill:#191C1C;" d="M319.6,414.4c0,1.6-0.8,2.4-2.4,2.4H172.4c-1.6,0-2.4-0.8-2.4-2.4l0,0c0-1.6,0.8-2.4,2.4-2.4h144
	C318,412,319.6,412.8,319.6,414.4L319.6,414.4z"/>
<circle style="fill:#ACC1C6;" cx="244.4" cy="414.4" r="37.6"/>
<circle style="fill:#303535;" cx="244.4" cy="414.4" r="29.6"/>
<path style="fill:#191C1C;" d="M244.4,384.8c16,0,29.6,13.6,29.6,29.6S260.4,444,244.4,444"/>
<g>
</g>
<g>
</g>
<g>
</g>
<g>
</g>
<g>
</g>
<g>
</g>
<g>
</g>
<g>
</g>
<g>
</g>
<g>
</g>
<g>
</g>
<g>
</g>
<g>
</g>
<g>
</g>
<g>
</g>
</svg>
